<svg xmlns="http://www.w3.org/2000/svg" viewBox="0 0 512 512" fill="#4e9339"><path d="M509.857 312.555l-86.261-143.779 77.415-21.504c7.983-2.217 12.655-10.485 10.439-18.467-2.218-7.982-10.488-12.656-18.468-10.438l-96.231 26.73-.021.006L271 180.027V15.004c0-8.284-6.716-15-15-15s-15 6.716-15 15V188.36l-133.443 37.066-.021.005-96.547 26.818C3.006 254.466-1.666 262.734.55 270.716c1.845 6.639 7.874 10.989 14.444 10.989a15.01 15.01 0 004.023-.551l60.186-16.718-77.06 128.449a15.007 15.007 0 00-2.138 7.717c0 61.423 49.973 111.394 111.397 111.394 61.426 0 111.398-49.971 111.398-111.394 0-2.718-.739-5.386-2.138-7.717L134.4 249.105l233.997-64.997-77.06 128.447a15.007 15.007 0 00-2.138 7.717c0 61.424 49.973 111.395 111.397 111.395 29.755 0 57.729-11.587 78.771-32.628 21.041-21.041 32.628-49.014 32.626-78.769a14.97 14.97 0 00-2.136-7.715zM111.402 481.997c-39.757 0-72.933-28.658-79.996-66.396h159.992c-7.062 37.738-40.238 66.396-79.996 66.396zm69.908-96.396H41.496l69.906-116.52 69.908 116.52zm219.286-196.849l69.909 116.519H330.689l69.907-116.519zm.002 212.916c-39.757 0-72.934-28.658-79.998-66.396h159.995c-7.064 37.738-40.239 66.396-79.997 66.396z"/></svg>