<?xml version="1.0" encoding="iso-8859-1"?>
<!-- Generator: Adobe Illustrator 19.0.0, SVG Export Plug-In . SVG Version: 6.00 Build 0)  -->
<svg version="1.1" id="Capa_1" xmlns="http://www.w3.org/2000/svg" xmlns:xlink="http://www.w3.org/1999/xlink" x="0px" y="0px"
	 viewBox="0 0 512 512" style="enable-background:new 0 0 512 512;" xml:space="preserve" fill="#00942e">
<g>
	<g>
		<path d="M508.998,93.39c-5.356-19.132-17.614-38.975-34.515-55.874c-16.898-16.9-36.741-29.157-55.874-34.514
			c-22.136-6.198-41.215-2.73-53.712,9.769L12.771,364.896C0.272,377.394-3.196,396.47,3.002,418.609
			c5.357,19.132,17.615,38.975,34.515,55.874c16.899,16.9,36.742,29.157,55.874,34.515c7.175,2.009,14.027,3.003,20.438,3.003
			c13.372,0,24.827-4.324,33.274-12.77L277.21,369.123l82.179,82.179l18.382-73.53l73.531-18.382l-82.179-82.179l130.107-130.107
			C511.728,134.606,515.197,115.53,508.998,93.39z M125.894,478.018c-4.433,4.434-13.333,5.197-24.414,2.094
			c-14.046-3.932-29.628-13.715-42.753-26.839c-13.124-13.123-22.906-28.706-26.839-42.753c-3.104-11.082-2.341-19.98,2.093-24.414
			c2.636-2.636,6.85-3.974,12.162-3.974c3.624,0,7.759,0.623,12.251,1.881c14.046,3.932,29.628,13.715,42.753,26.839
			s22.906,28.706,26.839,42.753C131.09,464.685,130.326,473.584,125.894,478.018z M267.656,336.255L157.183,446.73
			c-0.108-0.407-0.195-0.806-0.31-1.215c-5.357-19.132-17.615-38.975-34.515-55.874c-16.899-16.9-36.742-29.157-55.874-34.515
			c-0.408-0.114-0.808-0.202-1.215-0.31l110.474-110.473c4.433-4.433,13.333-5.196,24.414-2.094
			c14.046,3.933,29.628,13.715,42.753,26.839c13.123,13.123,22.906,28.706,26.84,42.753
			C272.852,322.923,272.089,331.822,267.656,336.255z M264.12,247.878c-16.899-16.9-36.742-29.157-55.875-34.514
			c-0.408-0.114-0.808-0.202-1.214-0.31l40.357-40.357c4.434-4.43,13.329-5.193,24.412-2.09
			c14.046,3.933,29.628,13.715,42.753,26.839c13.123,13.123,22.906,28.706,26.84,42.753c3.103,11.082,2.34,19.98-2.094,24.414
			l-40.354,40.354c-0.108-0.406-0.195-0.806-0.31-1.214C293.279,284.621,281.021,264.778,264.12,247.878z M392.631,343.136
			l-39.595,9.899l-9.898,39.593l-44.716-44.716l49.492-49.492L392.631,343.136z M478.02,125.893L370.587,233.326
			c-0.108-0.407-0.195-0.806-0.31-1.215c-5.356-19.132-17.614-38.975-34.515-55.874c-16.899-16.9-36.742-29.157-55.875-34.515
			c-0.408-0.114-0.808-0.202-1.214-0.31L386.107,33.98c4.434-4.432,13.329-5.195,24.414-2.093
			c14.046,3.932,29.628,13.715,42.753,26.839c13.123,13.123,22.906,28.706,26.839,42.752
			C483.215,112.56,482.453,121.459,478.02,125.893z"/>
	</g>
</g>
<g>
</g>
<g>
</g>
<g>
</g>
<g>
</g>
<g>
</g>
<g>
</g>
<g>
</g>
<g>
</g>
<g>
</g>
<g>
</g>
<g>
</g>
<g>
</g>
<g>
</g>
<g>
</g>
<g>
</g>
</svg>
