<svg height="512" width="512" xmlns="http://www.w3.org/2000/svg" fill="#4e9339"><path d="M376 31c-54.544 0-95.017 33.497-120 81.015C231.019 64.5 190.546 31 136 31 57.391 31 0 97.015 0 177.515c0 106.457 101.572 173.291 246.122 299.773a15.001 15.001 0 0019.756 0C410.295 350.922 512 283.985 512 177.515 512 97.002 454.6 31 376 31zM256 446.101C122.878 330.466 30 266.229 30 177.515 30 111.091 75.57 61 136 61c58.252 0 94.351 53.947 105.542 93.996 4.036 14.61 24.83 14.675 28.916 0C281.501 115.478 317.181 61 376 61c60.43 0 106 50.091 106 116.515 0 88.765-93.03 153.083-226 268.586z"/></svg>