<?xml version="1.0" standalone="no"?>
<!DOCTYPE svg PUBLIC "-//W3C//DTD SVG 20010904//EN"
 "http://www.w3.org/TR/2001/REC-SVG-20010904/DTD/svg10.dtd">
<svg version="1.0" xmlns="http://www.w3.org/2000/svg"
 width="74.000000pt" height="74.000000pt" viewBox="0 0 74.000000 74.000000"
 preserveAspectRatio="xMidYMid meet">
<metadata>
Created by potrace 1.11, written by Peter Selinger 2001-2013
</metadata>
<g transform="translate(0.000000,74.000000) scale(0.100000,-0.100000)"
fill="#000000" stroke="none">
<path d="M337 696 c-16 -17 -94 -98 -174 -180 l-144 -148 110 -112 c60 -61
139 -141 174 -178 l65 -68 175 180 174 179 -86 88 c-47 49 -126 129 -176 179
l-90 92 -28 -32z m13 -188 l-1 -133 -65 69 -66 68 63 64 c35 35 65 64 66 64 2
0 3 -60 3 -132z m106 43 c-7 -9 -22 -26 -32 -38 -10 -13 -22 -23 -26 -23 -5 0
-8 35 -8 77 l0 77 40 -39 c34 -33 38 -41 26 -54z m96 -114 c-9 -11 -50 -54
-89 -95 l-73 -75 0 75 0 74 55 57 55 57 35 -37 c33 -35 34 -38 17 -56z m-209
-115 c4 -2 7 -54 7 -115 l0 -112 -136 137 -136 137 56 55 55 55 73 -77 c40
-42 76 -78 81 -80z m287 73 c27 -29 38 -14 -122 -179 l-118 -121 0 56 0 56
103 106 c56 58 105 106 108 107 3 0 16 -11 29 -25z"/>
</g>
</svg>
